<?xml version="1.0" encoding="utf-8"?>
<!-- Generator: Adobe Illustrator 21.0.2, SVG Export Plug-In . SVG Version: 6.00 Build 0)  -->
<svg version="1.1" id="Layer_1" xmlns="http://www.w3.org/2000/svg" xmlns:xlink="http://www.w3.org/1999/xlink" x="0px" y="0px"
	 viewBox="0 0 100 100" style="enable-background:new 0 0 100 100;" xml:space="preserve">
<style type="text/css">
	.st0{fill:#52527C;}
</style>
<path class="st0" d="M50.2,96.2c-25.7,0-46.6-20.9-46.6-46.6C3.7,23.9,24.6,3,50.2,3s46.6,20.9,46.6,46.6
	C96.8,75.3,75.9,96.2,50.2,96.2z M50.2,5.6c-24.3,0-44,19.7-44,44c0,24.3,19.7,44,44,44c24.3,0,44-19.7,44-44
	C94.2,25.3,74.5,5.6,50.2,5.6z"/>
<path class="st0" d="M50.2,8.4C27.5,8.4,9.1,26.8,9.1,49.6s18.4,41.2,41.2,41.2s41.2-18.4,41.2-41.2S73,8.4,50.2,8.4z M42.9,32.1
	c2.9-8.8,7.3-17.6,7.3-17.6c4.4,8.8,7.3,17.6,7.3,17.6c7.3,4.4,12.4,5.9,12.4,5.9s-6.5,1.5-19.7,1.5s-19-1.5-19-1.5
	C37.1,36.5,42.9,32.1,42.9,32.1z M28.3,76l13.2-32.2c0,0,7.3,2.9,17.6,0L72.2,76C72.2,76,54.6,90.6,28.3,76z"/>
</svg>
