<?xml version="1.0" encoding="utf-8"?>
<!-- Generator: Adobe Illustrator 21.0.2, SVG Export Plug-In . SVG Version: 6.00 Build 0)  -->
<svg version="1.1" id="Layer_1" xmlns="http://www.w3.org/2000/svg" xmlns:xlink="http://www.w3.org/1999/xlink" x="0px" y="0px"
	 viewBox="0 0 100 100" style="enable-background:new 0 0 100 100;" xml:space="preserve">
<style type="text/css">
	.st0{fill:#52527C;}
</style>
<path class="st0" d="M50.3,69.6c-18.1,0-32.8-14.7-32.8-32.8C17.4,18.7,32.2,4,50.3,4s32.8,14.7,32.8,32.8
	C83.1,54.9,68.3,69.6,50.3,69.6z M50.3,5.8c-17.1,0-31,13.9-31,31c0,17.1,13.9,31,31,31c17.1,0,31-13.9,31-31
	C81.2,19.7,67.3,5.8,50.3,5.8z"/>
<path class="st0" d="M50.3,7.8c-16,0-29,13-29,29s13,29,29,29s29-13,29-29S66.3,7.8,50.3,7.8z M45.1,24.5c2.1-6.2,5.2-12.4,5.2-12.4
	c3.1,6.2,5.2,12.4,5.2,12.4c5.2,3.1,8.7,4.1,8.7,4.1s-4.6,1-13.9,1s-13.4-1-13.4-1C41,27.6,45.1,24.5,45.1,24.5z M34.8,55.4
	l9.3-22.7c0,0,5.2,2.1,12.4,0l9.3,22.7C65.7,55.4,53.3,65.7,34.8,55.4z"/>
<g>
	<path class="st0" d="M12.3,71.5v0.3h-0.9v4.8h3.1v-4.8h-0.9v-0.3h4.8v0.3h-0.9v10.2h0.9v0.3h-4.8v-0.3h0.9v-5h-3.1v5h0.9v0.3H7.4
		v-0.3h0.9V71.8H7.4v-0.3H12.3z"/>
	<path class="st0" d="M23,78.7v-1.2c0-2-0.2-2.5-0.8-2.5c-0.3,0-0.7,0.1-0.7,0.6c0,0.1,0,0.3,0.1,0.4H22c0.1,0.2,0.1,0.4,0.1,0.7
		c0,0.7-0.6,1.2-1.4,1.2c-1,0-1.3-0.5-1.3-1.3c0-1.3,1.1-1.9,3.2-1.9c2.4,0,3.2,0.7,3.2,2.9v3.1c0,0.6,0.2,0.8,0.4,0.8
		c0.3,0,0.5-0.3,0.6-1.6l0.2,0c-0.1,1.9-0.6,2.4-2,2.4c-1.3,0-1.9-0.4-2.1-1.1c-0.2,0.7-0.7,1.1-1.8,1.1S19,82.2,19,80.6
		c0-1.6,1.3-1.9,3.6-1.9H23z M23,80.4V79h-0.1c-0.6,0-1,0.5-1,1.4v0.2c0,1.1,0.1,1.3,0.4,1.3C22.6,81.9,23,81.4,23,80.4z"/>
	<path class="st0" d="M27.9,75.3H27V75h0.9v-2l2.9-0.7V75h2v0.3h-2v5.2c0,0.9,0.1,1.4,0.7,1.4c0.7,0,1.2-0.7,1.3-1.7l0.3,0
		c-0.1,1.2-0.6,2.3-2.5,2.3c-1.5,0-2.6-0.4-2.6-2.4V75.3z"/>
	<path class="st0" d="M45.4,83.4c0-1-0.4-1.6-0.8-2.2c-0.6,0.7-1.6,1.3-3.3,1.3c-2.5,0-4.4-0.8-4.4-2.9c0-1.3,0.6-2.2,2.4-2.6
		c-0.9-0.8-1.4-1.6-1.4-2.7c0-2.1,1.7-3,3.6-3c2.2,0,3.1,0.8,3.1,2.1c0,1.1-0.8,1.9-2.5,2.5c0.3,0.2,0.7,0.5,1.2,0.8
		c0.8,0.5,1.7,1.1,2.3,1.7c0.2-0.8,0.2-1.5,0.3-2.3h-1.2v-0.3h2.7v0.3h-1.1c0,0.9-0.1,1.7-0.3,2.6c0.7,0.8,1.3,1.6,1.3,3.1
		c0,2.2-1.8,4.3-3.8,4.3c-1.3,0-2.1-0.6-2.1-1.6c0-0.8,0.5-1.3,1.3-1.3c0.8,0,1.2,0.4,1.2,1.1c0,0.2,0,0.3-0.1,0.6h-0.5
		c-0.2,0.5-0.1,0.8,0.6,0.8C44.9,85.9,45.4,84.7,45.4,83.4z M44.3,80.8c-0.5-0.5-1.1-1-2-1.6c-1.1-0.7-2.1-1.3-2.8-2
		c-0.2,0.3-0.2,0.9-0.2,1.9c0,2.2,0.9,2.9,2.4,2.9C43,82.1,43.8,81.5,44.3,80.8z M41.8,75.7c1-0.5,1-1.2,1-2.2
		c0-1.2-0.5-1.8-1.3-1.8c-0.6,0-1.4,0.3-1.4,1.6C40,74.2,40.4,74.8,41.8,75.7z"/>
	<path class="st0" d="M55.1,76.3v1.2c0,2.8,0.8,4.7,2.5,4.7c1.3,0,2.3-1.3,3.1-3.3H61l-0.1,3.4h-0.2c-0.1-0.2-0.2-0.3-0.4-0.3
		c-0.5,0-1.4,0.5-3.1,0.5c-3.3,0-5.3-1.7-5.3-5.4c0-3.7,2.2-5.7,5.3-5.7c1.6,0,2.3,0.5,2.9,0.5c0.2,0,0.3-0.1,0.4-0.3h0.2l0.1,3.4
		h-0.3c-0.9-1.9-1.8-3.2-3.1-3.2C56,71.7,55.1,73.1,55.1,76.3z"/>
	<path class="st0" d="M65.9,70.8v11.3h0.9v0.3h-4.6v-0.3H63V71h-0.9v-0.3H65.9z"/>
	<path class="st0" d="M71.2,74.9c2.6,0,3.8,1.2,3.8,3.7c0,2.5-1.2,3.9-3.9,3.9c-2.6,0-3.9-1.4-3.9-3.8
		C67.2,76.2,68.7,74.9,71.2,74.9z M72,78c0-1.7,0-2.9-0.9-2.9c-0.9,0-1,1.2-1,3v1.2c0,1.8,0,3,1,3c0.9,0,0.9-0.9,0.9-2.9V78z"/>
	<path class="st0" d="M79.6,78.7v-1.2c0-2-0.2-2.5-0.8-2.5c-0.3,0-0.7,0.1-0.7,0.6c0,0.1,0,0.3,0.1,0.4h0.4c0.1,0.2,0.1,0.4,0.1,0.7
		c0,0.7-0.6,1.2-1.4,1.2c-1,0-1.3-0.5-1.3-1.3c0-1.3,1.1-1.9,3.2-1.9c2.4,0,3.2,0.7,3.2,2.9v3.1c0,0.6,0.2,0.8,0.4,0.8
		c0.3,0,0.5-0.3,0.6-1.6l0.2,0c-0.1,1.9-0.6,2.4-2,2.4c-1.3,0-1.9-0.4-2.1-1.1c-0.2,0.7-0.7,1.1-1.8,1.1s-2.3-0.3-2.3-1.9
		c0-1.6,1.3-1.9,3.6-1.9H79.6z M79.6,80.4V79h-0.1c-0.6,0-1,0.5-1,1.4v0.2c0,1.1,0.1,1.3,0.4,1.3C79.2,81.9,79.6,81.4,79.6,80.4z"/>
	<path class="st0" d="M89,82.1h0.7L88,78.5l-0.3,0.1v3.5h0.7v0.3h-4.4v-0.3h0.9V71h-0.9v-0.3h3.8v7.5l0.2-0.1l3.5-2.9h-1.5V75h3v0.3
		h-1.1l-1.8,1.6l2.7,5.2h0.6v0.3H89V82.1z"/>
</g>
<rect x="1.4" y="84.2" class="st0" width="97.6" height="1.8"/>
<g>
	<path class="st0" d="M7.7,88.3C7.1,88.4,7,88.4,7,89v3.8c0,0.6,0.1,0.6,0.6,0.7v0.2c-0.2,0-0.6,0-1,0c-0.4,0-0.8,0-1,0v-0.2
		c0.5,0,0.6-0.1,0.6-0.7V89c0-0.6-0.1-0.6-0.6-0.7v-0.2c0.2,0,0.6,0,1,0c0.4,0,0.7,0,1,0V88.3z"/>
	<path class="st0" d="M12.7,89.9c0.2,0.2,0.3,0.5,0.3,1V93c0,0.4,0.2,0.6,0.6,0.6v0.2c-0.2,0-0.6,0-0.9,0c-0.3,0-0.7,0-0.9,0v-0.2
		c0.4,0,0.5-0.1,0.5-0.6v-2.2c0-0.5-0.1-0.9-0.6-0.9c-0.7,0-1.1,0.6-1.1,1.4V93c0,0.4,0.1,0.6,0.5,0.6v0.2c-0.2,0-0.5,0-0.9,0
		c-0.3,0-0.8,0-0.9,0v-0.2c0.4,0,0.6-0.1,0.6-0.6v-2.4c0-0.5-0.1-0.7-0.6-0.7v-0.2c0.2,0,0.3,0,0.5,0c0.3,0,0.6,0,0.8-0.1v0.9
		c0.3-0.7,0.8-0.9,1.3-0.9C12.2,89.6,12.5,89.7,12.7,89.9z"/>
	<path class="st0" d="M18.3,89.7v0.2c-0.2,0-0.4,0.1-0.5,0.5l-1.3,3.3h-0.1L15,90.3c-0.2-0.4-0.3-0.4-0.5-0.4v-0.2
		c0.2,0,0.4,0,0.7,0c0.3,0,0.7,0,1,0v0.2c-0.3,0-0.5,0-0.5,0.3c0,0.1,0,0.2,0.1,0.3l1,2.4l0.9-2.2c0.1-0.1,0.1-0.3,0.1-0.4
		c0-0.2-0.2-0.3-0.6-0.4v-0.2c0.3,0,0.4,0,0.7,0C18,89.7,18.2,89.7,18.3,89.7z"/>
	<path class="st0" d="M22.9,92.7c-0.2,0.5-0.7,1-1.5,1c-1.1,0-1.8-0.8-1.8-2c0-1.4,0.7-2.2,1.8-2.2c0.9,0,1.5,0.5,1.5,1.7h-2.4
		c0,0.1,0,0.3,0,0.5c0,1.1,0.6,1.7,1.2,1.7c0.5,0,0.9-0.2,1.1-0.8L22.9,92.7z M20.4,91.1h1.7c0-0.8-0.2-1.4-0.7-1.4
		C20.9,89.7,20.5,90.2,20.4,91.1z"/>
	<path class="st0" d="M26.7,89.9c0.1,0,0.1,0.1,0.1,0.1c0.1,0,0.1-0.1,0.2-0.3h0.2c0,0.3,0,0.7,0,1.3h-0.2c-0.1-0.6-0.4-1.2-1.1-1.2
		c-0.4,0-0.6,0.2-0.6,0.6c0,0.5,0.5,0.7,1,1c0.6,0.4,1.1,0.7,1.1,1.4c0,0.7-0.6,1.1-1.3,1.1c-0.2,0-0.4,0-0.6-0.1
		c-0.1-0.1-0.2-0.1-0.3-0.2c0,0,0,0-0.1,0c-0.1,0-0.1,0.1-0.2,0.3h-0.2c0-0.3,0-0.8,0-1.5h0.2c0.1,0.9,0.3,1.5,1.1,1.5
		c0.3,0,0.7-0.2,0.7-0.7c0-0.5-0.4-0.7-0.9-1c-0.6-0.4-1.1-0.7-1.1-1.3c0-0.7,0.5-1,1.1-1C26.2,89.6,26.5,89.7,26.7,89.9z"/>
	<path class="st0" d="M31.3,89.7v0.2h-1.1v3c0,0.5,0.2,0.7,0.5,0.7s0.5-0.2,0.7-0.8l0.2,0c-0.1,0.6-0.4,1.1-1,1.1
		c-0.4,0-0.6-0.1-0.7-0.3c-0.2-0.2-0.3-0.5-0.3-1.1v-2.6h-0.7v-0.2h0.7v-1.2c0.3,0,0.5,0,0.7-0.1v1.3H31.3z"/>
	<path class="st0" d="M33.9,93c0,0.4,0.2,0.6,0.6,0.6v0.2c-0.2,0-0.6,0-0.9,0c-0.4,0-0.8,0-0.9,0v-0.2c0.4,0,0.6-0.1,0.6-0.6v-2.4
		c0-0.5-0.1-0.7-0.6-0.7v-0.2c0.2,0,0.3,0,0.5,0c0.3,0,0.6,0,0.8-0.1V93z M34,88.2c0,0.3-0.2,0.5-0.5,0.5c-0.3,0-0.5-0.2-0.5-0.5
		c0-0.3,0.2-0.5,0.5-0.5C33.8,87.7,34,88,34,88.2z"/>
	<path class="st0" d="M38.7,92.8c0.5,0,0.9,0.2,0.9,0.7c0,0.7-0.7,1.6-2.2,1.6c-0.8,0-1.6-0.2-1.6-0.7c0-0.4,0.5-0.7,1-0.9h0
		c-0.3,0-0.8-0.1-0.8-0.6c0-0.3,0.2-0.6,1-1c-0.4-0.2-0.7-0.5-0.7-1.1c0-0.9,0.6-1.2,1.4-1.2c0.2,0,0.4,0,0.5,0.1
		c0.1-0.3,0.2-0.5,0.3-0.7c0.1-0.2,0.3-0.3,0.5-0.3c0.3,0,0.4,0.2,0.4,0.4c0,0.2-0.2,0.4-0.4,0.4c-0.3,0-0.4-0.2-0.4-0.5
		c-0.1,0.1-0.1,0.2-0.2,0.4c0,0.1-0.1,0.2-0.1,0.3c0.4,0.2,0.7,0.5,0.7,1.1c0,0.9-0.6,1.2-1.4,1.2c-0.2,0-0.4,0-0.6-0.1
		c-0.3,0.2-0.7,0.4-0.7,0.6c0,0.2,0.1,0.3,0.4,0.3H38.7z M39.1,93.9c0-0.3-0.1-0.4-0.6-0.4H37c-0.3,0.2-0.5,0.5-0.5,0.8
		c0,0.5,0.6,0.7,1.1,0.7C38.3,95,39.1,94.7,39.1,93.9z M37,90.8c0,0.8,0.3,1.1,0.7,1.1c0.4,0,0.7-0.3,0.7-1.1s-0.3-1.1-0.7-1.1
		C37.3,89.7,37,90,37,90.8z"/>
	<path class="st0" d="M43.6,89.9c0.2,0.3,0.3,0.5,0.3,1.1v2.2c0,0.3,0.1,0.4,0.2,0.4c0.1,0,0.2-0.1,0.3-0.2l0.1,0.1
		c-0.2,0.2-0.4,0.3-0.7,0.3c-0.5,0-0.7-0.3-0.7-0.7c-0.3,0.5-0.8,0.7-1.2,0.7c-0.5,0-1-0.3-1-0.9c0-0.6,0.5-0.9,1.3-1.2
		c0.5-0.2,0.9-0.3,0.9-0.7v-0.5c0-0.7-0.3-0.8-0.7-0.8c-0.3,0-0.6,0.1-0.8,0.3c0.2,0,0.4,0.2,0.4,0.5c0,0.3-0.2,0.4-0.5,0.4
		c-0.3,0-0.4-0.2-0.4-0.5c0-0.2,0.1-0.4,0.4-0.6c0.2-0.1,0.6-0.3,1.1-0.3C43.1,89.6,43.4,89.7,43.6,89.9z M43.2,91.3
		c-0.1,0.1-0.3,0.2-0.7,0.4c-0.3,0.2-0.8,0.4-0.8,1c0,0.5,0.3,0.7,0.6,0.7c0.3,0,0.6-0.2,0.9-0.6V91.3z"/>
	<path class="st0" d="M48.2,89.7v0.2h-1.1v3c0,0.5,0.2,0.7,0.5,0.7s0.5-0.2,0.7-0.8l0.2,0c-0.1,0.6-0.4,1.1-1,1.1
		c-0.4,0-0.6-0.1-0.7-0.3c-0.2-0.2-0.3-0.5-0.3-1.1v-2.6h-0.7v-0.2h0.7v-1.2c0.3,0,0.5,0,0.7-0.1v1.3H48.2z"/>
	<path class="st0" d="M50.9,93c0,0.4,0.2,0.6,0.6,0.6v0.2c-0.2,0-0.6,0-0.9,0c-0.4,0-0.8,0-0.9,0v-0.2c0.4,0,0.6-0.1,0.6-0.6v-2.4
		c0-0.5-0.1-0.7-0.6-0.7v-0.2c0.2,0,0.3,0,0.5,0c0.3,0,0.6,0,0.8-0.1V93z M50.9,88.2c0,0.3-0.2,0.5-0.5,0.5c-0.3,0-0.5-0.2-0.5-0.5
		c0-0.3,0.2-0.5,0.5-0.5C50.7,87.7,50.9,88,50.9,88.2z"/>
	<path class="st0" d="M56.4,89.7v0.2c-0.2,0-0.4,0.1-0.5,0.5l-1.3,3.3h-0.1l-1.4-3.4c-0.2-0.4-0.3-0.4-0.5-0.4v-0.2
		c0.2,0,0.4,0,0.7,0c0.3,0,0.7,0,1,0v0.2c-0.3,0-0.5,0-0.5,0.3c0,0.1,0,0.2,0.1,0.3l1,2.4l0.9-2.2c0.1-0.1,0.1-0.3,0.1-0.4
		c0-0.2-0.2-0.3-0.6-0.4v-0.2c0.3,0,0.4,0,0.7,0C56,89.7,56.2,89.7,56.4,89.7z"/>
	<path class="st0" d="M60.9,92.7c-0.2,0.5-0.7,1-1.5,1c-1.1,0-1.8-0.8-1.8-2c0-1.4,0.7-2.2,1.8-2.2c0.9,0,1.5,0.5,1.5,1.7h-2.4
		c0,0.1,0,0.3,0,0.5c0,1.1,0.6,1.7,1.2,1.7c0.5,0,0.9-0.2,1.1-0.8L60.9,92.7z M58.5,91.1h1.7c0-0.8-0.2-1.4-0.7-1.4
		C59,89.7,58.6,90.2,58.5,91.1z"/>
	<path class="st0" d="M68.1,90.8c1.2,0.2,1.6,0.8,1.6,1.4c0,0.9-0.7,1.5-1.9,1.5c-0.2,0-0.7,0-1.3,0c-0.4,0-0.7,0-1,0v-0.2
		c0.5,0,0.6-0.1,0.6-0.7V89c0-0.6-0.1-0.6-0.6-0.7v-0.2c0.2,0,0.6,0,0.9,0c0.5,0,1,0,1.2,0c1.1,0,1.6,0.5,1.6,1.2
		C69.3,90,69,90.5,68.1,90.8L68.1,90.8z M66.9,89v1.8h0.5c0.9,0,1.1-0.6,1.1-1.3c0-0.8-0.3-1.2-1.1-1.2C67,88.3,66.9,88.5,66.9,89z
		 M68.9,92.1c0-0.8-0.4-1.2-1.4-1.2h-0.7v2c0,0.5,0.1,0.6,0.6,0.6C68.5,93.5,68.9,93,68.9,92.1z"/>
	<path class="st0" d="M74.8,92.8c0,0.5,0.1,0.7,0.6,0.7v0.2c-0.2,0-0.3,0-0.5,0c-0.3,0-0.6,0-0.8,0.1v-0.9c-0.3,0.7-0.8,0.9-1.3,0.9
		c-0.4,0-0.6-0.1-0.8-0.3c-0.2-0.2-0.3-0.5-0.3-1v-1.9c0-0.5-0.1-0.7-0.6-0.7v-0.2c0.2,0,0.3,0,0.5,0c0.3,0,0.6,0,0.8-0.1v3
		c0,0.5,0,0.9,0.6,0.9c0.6,0,1-0.6,1-1.4v-1.6c0-0.5-0.1-0.7-0.6-0.7v-0.2c0.2,0,0.3,0,0.5,0c0.3,0,0.6,0,0.8-0.1V92.8z"/>
	<path class="st0" d="M79.9,90.2c0,0.3-0.2,0.5-0.4,0.5c-0.2,0-0.4-0.1-0.4-0.4c0-0.2,0.1-0.3,0.3-0.4c0-0.1-0.1-0.1-0.2-0.1
		c-0.7,0-1.1,0.9-1.1,1.5v1.6c0,0.5,0.3,0.6,0.8,0.6v0.2c-0.2,0-0.7,0-1.2,0c-0.4,0-0.7,0-0.9,0v-0.2c0.4,0,0.6-0.1,0.6-0.6v-2.4
		c0-0.5-0.1-0.7-0.6-0.7v-0.2c0.2,0,0.3,0,0.5,0c0.3,0,0.6,0,0.8-0.1v1c0.2-0.5,0.6-1,1.1-1C79.6,89.6,79.9,89.9,79.9,90.2z"/>
	<path class="st0" d="M84.4,92.7c-0.2,0.5-0.7,1-1.5,1c-1.1,0-1.8-0.8-1.8-2c0-1.4,0.7-2.2,1.8-2.2c0.9,0,1.5,0.5,1.5,1.7H82
		c0,0.1,0,0.3,0,0.5c0,1.1,0.6,1.7,1.2,1.7c0.5,0,0.9-0.2,1.1-0.8L84.4,92.7z M82,91.1h1.7c0-0.8-0.2-1.4-0.7-1.4
		C82.5,89.7,82.1,90.2,82,91.1z"/>
	<path class="st0" d="M88.6,89.9c0.2,0.3,0.3,0.5,0.3,1.1v2.2c0,0.3,0.1,0.4,0.2,0.4c0.1,0,0.2-0.1,0.3-0.2l0.1,0.1
		c-0.2,0.2-0.4,0.3-0.7,0.3c-0.5,0-0.7-0.3-0.7-0.7c-0.3,0.5-0.8,0.7-1.2,0.7c-0.5,0-1-0.3-1-0.9c0-0.6,0.5-0.9,1.2-1.2
		c0.5-0.2,0.9-0.3,0.9-0.7v-0.5c0-0.7-0.3-0.8-0.7-0.8c-0.3,0-0.6,0.1-0.8,0.3c0.2,0,0.4,0.2,0.4,0.5c0,0.3-0.2,0.4-0.5,0.4
		c-0.3,0-0.4-0.2-0.4-0.5c0-0.2,0.1-0.4,0.4-0.6c0.2-0.1,0.6-0.3,1.1-0.3C88.1,89.6,88.5,89.7,88.6,89.9z M88.3,91.3
		c-0.1,0.1-0.3,0.2-0.7,0.4c-0.3,0.2-0.8,0.4-0.8,1c0,0.5,0.3,0.7,0.6,0.7c0.3,0,0.6-0.2,0.9-0.6V91.3z"/>
	<path class="st0" d="M94.4,92.8c0,0.5,0.1,0.7,0.6,0.7v0.2c-0.2,0-0.3,0-0.5,0c-0.3,0-0.6,0-0.8,0.1v-0.9c-0.3,0.7-0.8,0.9-1.3,0.9
		c-0.4,0-0.6-0.1-0.8-0.3c-0.2-0.2-0.3-0.5-0.3-1v-1.9c0-0.5-0.1-0.7-0.6-0.7v-0.2c0.2,0,0.3,0,0.5,0c0.3,0,0.6,0,0.8-0.1v3
		c0,0.5,0,0.9,0.6,0.9c0.6,0,1-0.6,1-1.4v-1.6c0-0.5-0.1-0.7-0.6-0.7v-0.2c0.2,0,0.3,0,0.5,0c0.3,0,0.6,0,0.8-0.1V92.8z"/>
</g>
</svg>
